<?xml version="1.0" standalone="no"?>
<!DOCTYPE svg PUBLIC "-//W3C//DTD SVG 20010904//EN"
        "http://www.w3.org/TR/2001/REC-SVG-20010904/DTD/svg10.dtd">
<svg version="1.0" xmlns="http://www.w3.org/2000/svg"
     width="622.000000pt" height="622.000000pt" viewBox="0 0 622.000000 622.000000"
     preserveAspectRatio="xMidYMid meet">
    <metadata>
        Created by potrace 1.11, written by Peter Selinger 2001-2013
    </metadata>
    <g transform="translate(0.000000,622.000000) scale(0.100000,-0.100000)"
       fill="#000000" stroke="none">
        <path d="M1468 5775 c-2 -1 -35 -6 -74 -9 -39 -4 -82 -9 -95 -11 -13 -3 -40
-7 -61 -10 -111 -17 -289 -73 -418 -133 -44 -21 -203 -112 -210 -121 -3 -3
-23 -20 -45 -36 -61 -45 -82 -64 -150 -135 -72 -74 -145 -165 -145 -179 0 -6
-8 -15 -18 -20 -9 -6 -13 -11 -9 -11 5 0 0 -12 -11 -27 -24 -33 -73 -121 -72
-128 0 -3 -6 -18 -14 -33 -33 -65 -93 -260 -110 -357 -25 -141 -27 -171 -30
-355 -3 -156 3 -243 27 -360 12 -63 67 -240 87 -285 5 -11 24 -56 41 -100 18
-44 50 -110 71 -147 21 -37 38 -70 38 -73 0 -4 11 -21 25 -39 14 -18 25 -38
25 -44 0 -6 3 -12 8 -14 4 -1 27 -32 51 -68 25 -36 63 -88 85 -116 23 -28 50
-63 61 -78 11 -16 25 -33 30 -40 6 -6 42 -47 80 -91 38 -44 94 -102 123 -130
76 -70 80 -74 722 -695 429 -415 536 -518 600 -580 41 -39 178 -171 304 -293
126 -122 264 -256 307 -297 43 -41 126 -122 185 -179 63 -61 125 -111 150
-123 46 -20 129 -23 152 -5 6 5 12 7 12 3 0 -10 52 26 90 64 52 50 472 455
555 535 66 63 364 350 629 607 142 137 228 219 481 463 218 209 626 614 671
665 41 47 174 216 204 260 14 19 28 40 32 45 37 46 160 255 150 255 -4 0 -2 4
4 8 10 7 84 156 84 170 0 4 6 19 14 34 8 15 17 41 21 59 4 19 11 40 15 49 8
14 26 78 36 124 13 58 17 77 29 151 9 52 12 141 10 255 -4 176 -6 207 -19 290
-4 25 -10 59 -12 75 -23 153 -114 392 -196 518 -21 32 -38 62 -38 66 0 4 -8
16 -17 27 -10 11 -43 49 -73 84 -59 70 -59 70 -146 147 -193 170 -493 305
-754 339 -19 3 -41 7 -48 10 -78 25 -510 25 -602 -1 -8 -2 -29 -7 -47 -10
-124 -21 -406 -141 -536 -229 -38 -25 -70 -46 -73 -46 -4 0 -163 -114 -229
-164 -84 -64 -211 -175 -275 -239 l-38 -38 -70 66 c-102 97 -228 199 -361 293
-64 45 -121 86 -128 92 -6 5 -29 19 -50 31 -21 12 -50 30 -66 41 -69 49 -298
144 -452 187 -86 24 -226 39 -367 39 -81 -1 -149 -2 -150 -3z"/>
    </g>
</svg>
